<?xml version="1.0" standalone="no"?>
<!DOCTYPE svg PUBLIC "-//W3C//DTD SVG 20010904//EN"
 "http://www.w3.org/TR/2001/REC-SVG-20010904/DTD/svg10.dtd">
<svg version="1.0" xmlns="http://www.w3.org/2000/svg"
 width="1079.000000pt" height="1079.000000pt" viewBox="0 0 1079.000000 1079.000000"
 preserveAspectRatio="xMidYMid meet">
<metadata>
Created by potrace 1.11, written by Peter Selinger 2001-2013
</metadata>
<g transform="translate(0.000000,1079.000000) scale(0.100000,-0.100000)"
fill="#000000" stroke="none">
<path d="M0 5395 l0 -5395 29 0 c27 0 30 4 36 43 25 169 44 331 43 362 -1 11
4 55 10 98 7 42 16 119 22 170 22 196 104 689 174 1047 30 156 46 245 50 280
9 74 19 142 51 345 50 310 89 627 100 805 3 36 7 85 10 110 3 25 10 92 15 150
6 58 12 116 15 130 2 14 7 57 10 95 11 134 36 370 45 425 5 30 14 105 20 165
22 228 58 505 89 695 11 63 22 140 25 170 4 30 11 82 17 115 5 33 23 139 39
235 27 161 77 405 100 490 5 19 30 121 56 225 111 453 323 1000 512 1320 156
266 416 635 576 820 67 78 439 453 472 475 12 8 61 52 110 96 49 45 116 103
149 130 33 27 71 59 85 72 36 33 336 235 390 262 25 13 77 43 117 67 69 42
270 134 363 166 25 9 70 25 100 37 81 30 303 96 400 118 138 32 375 69 490 76
41 3 145 10 231 17 167 12 685 6 839 -10 309 -33 740 -105 905 -152 39 -11
111 -31 160 -45 203 -57 409 -130 608 -215 116 -50 223 -97 238 -106 l27 -16
-27 -46 c-31 -52 -81 -159 -81 -172 0 -5 6 -9 13 -9 7 0 24 24 37 53 90 203
308 404 491 454 46 12 103 17 199 17 151 1 210 -15 293 -78 58 -44 77 -87 89
-211 8 -86 7 -118 -6 -185 -23 -113 -70 -238 -117 -310 -21 -33 -39 -64 -39
-68 0 -4 -17 -25 -37 -48 -134 -144 -183 -210 -183 -243 0 -24 50 -81 71 -81
13 0 19 -6 17 -17 -5 -27 26 -18 109 33 67 40 103 48 103 22 0 -6 7 -7 16 -4
8 3 12 2 9 -4 -3 -5 11 -29 32 -52 42 -46 92 -110 108 -137 66 -108 88 -141
94 -141 4 0 8 -6 8 -12 0 -7 26 -57 56 -111 52 -89 80 -146 157 -312 31 -67
79 -196 99 -265 8 -25 20 -59 27 -77 8 -17 14 -36 14 -42 0 -6 9 -37 21 -69
11 -31 22 -64 24 -72 2 -8 12 -51 23 -95 43 -176 72 -306 91 -415 37 -206 61
-333 82 -445 11 -60 24 -193 30 -295 5 -102 14 -257 19 -345 6 -88 15 -243 20
-345 6 -102 15 -216 20 -255 5 -38 12 -99 15 -135 8 -102 25 -256 41 -370 8
-58 19 -143 24 -190 5 -47 14 -107 20 -135 6 -27 12 -75 15 -105 10 -112 17
-158 40 -270 13 -63 33 -162 45 -220 11 -58 27 -134 35 -170 8 -36 22 -112 30
-170 36 -249 44 -301 68 -405 14 -60 28 -130 32 -155 4 -25 20 -97 36 -160 41
-171 66 -288 74 -355 4 -33 12 -68 17 -78 5 -10 21 -75 35 -145 14 -70 29
-143 33 -162 34 -153 40 -184 40 -206 0 -13 3 -24 8 -24 4 0 7 -12 8 -27 0
-30 64 -340 88 -433 18 -71 46 -217 57 -300 14 -111 36 -240 62 -365 14 -66
28 -151 32 -190 11 -128 -7 -115 170 -115 l155 0 0 5395 0 5395 -5395 0 -5395
0 0 -5395z m4010 4647 c0 -5 17 -18 38 -30 42 -23 132 -108 132 -124 0 -6 6
-8 13 -5 7 2 13 -4 13 -17 1 -11 9 -39 17 -61 14 -36 14 -41 0 -52 -9 -7 -36
-15 -62 -18 -47 -6 -358 -102 -376 -115 -5 -5 -39 -18 -74 -30 -34 -11 -113
-45 -175 -74 -61 -29 -121 -56 -134 -60 -22 -7 -23 -7 -16 46 17 139 97 295
195 381 56 49 213 130 292 152 58 15 137 19 137 7z"/>
<path d="M3075 8171 c-64 -29 -115 -104 -115 -169 0 -31 35 -85 69 -107 81
-51 194 7 221 113 18 74 -10 136 -77 171 -30 15 -51 14 -98 -8z"/>
<path d="M5829 7841 c-92 -50 -129 -143 -90 -225 60 -122 251 -112 293 16 36
110 -21 217 -119 225 -34 2 -58 -2 -84 -16z"/>
<path d="M3506 7823 c-1 -1 -64 -7 -139 -12 -127 -10 -209 -26 -282 -56 -16
-6 -48 -18 -70 -25 -85 -28 -263 -116 -335 -166 -164 -115 -185 -132 -259
-209 -136 -142 -258 -318 -315 -457 -102 -248 -157 -537 -151 -791 8 -379 49
-601 161 -883 61 -153 164 -347 177 -334 3 3 -28 73 -69 155 -41 83 -74 156
-74 163 0 8 -13 44 -29 80 -82 188 -151 660 -137 932 13 230 115 626 193 749
10 16 31 51 47 77 149 247 403 474 670 599 104 49 281 111 344 120 23 4 54 9
70 12 15 3 117 6 227 7 204 1 322 -13 433 -51 48 -16 68 -9 38 13 -47 34 -243
73 -389 77 -59 1 -109 2 -111 0z"/>
<path d="M3185 7646 c-44 -12 -96 -30 -115 -40 -94 -50 -147 -118 -134 -173 6
-28 45 -92 74 -125 75 -82 365 -217 555 -256 192 -40 445 -55 550 -33 67 15
140 47 167 74 10 9 22 17 27 17 5 0 23 19 40 42 52 71 42 138 -32 210 -54 53
-143 128 -153 128 -4 0 -23 10 -43 23 -41 25 -51 29 -211 85 -63 22 -122 40
-130 40 -8 1 -51 8 -95 16 -54 10 -136 15 -250 15 -142 -1 -183 -5 -250 -23z"/>
<path d="M3211 4709 c-62 -22 -65 -24 -57 -38 4 -6 26 -3 59 9 28 10 71 21 95
24 59 8 194 -20 270 -55 94 -44 100 -17 7 30 -106 53 -273 66 -374 30z"/>
<path d="M9860 2129 c0 -6 5 -19 10 -29 8 -15 6 -24 -10 -40 -11 -11 -22 -31
-26 -45 -8 -34 1 -168 20 -300 62 -409 106 -1022 106 -1477 l0 -238 146 0 147
0 -7 268 c-3 147 -11 330 -16 407 -18 248 -25 300 -90 685 -9 52 -13 68 -45
210 -13 58 -33 130 -43 160 -107 302 -154 410 -178 410 -8 0 -14 -5 -14 -11z"/>
<path d="M722 1883 c0 -5 -2 -15 -5 -23 -6 -16 -48 -327 -45 -338 1 -4 -2 -38
-6 -77 -13 -107 -14 -116 -27 -335 -12 -198 -17 -888 -7 -1000 3 -30 5 -67 6
-82 1 -18 8 -28 17 -28 14 0 15 22 8 193 -13 307 -10 671 7 867 4 47 11 143
14 214 3 70 8 131 10 135 2 3 6 40 10 81 11 131 17 184 27 235 14 74 17 135 8
135 -5 0 -6 7 -3 15 4 8 1 15 -5 15 -6 0 -10 -3 -9 -7z"/>
<path d="M6498 1215 c-3 -3 26 -88 64 -188 39 -100 78 -207 88 -237 10 -30 26
-73 35 -95 10 -22 24 -65 31 -95 8 -30 25 -84 38 -120 44 -123 106 -319 106
-337 0 -10 10 -46 22 -81 16 -45 27 -62 40 -62 23 0 23 -1 -8 100 -85 280
-109 353 -135 423 -16 43 -29 85 -29 93 0 8 -15 54 -34 102 -18 48 -59 155
-90 237 -84 222 -111 277 -128 260z"/>
</g>
</svg>
